<svg width="27" height="25" fill="none" xmlns="http://www.w3.org/2000/svg"><path d="M21.88 22.27a.15.15 0 00.08-.06l.02-.02c.04-.05.04-.13.04-.18-.01-.1-.1-.18-.18-.18-.09 0-.17.11-.17.23.01.12.1.2.17.2h.04zm-13.66-.01c.1 0 .18-.1.18-.21 0-.12-.08-.21-.18-.21-.1 0-.18.1-.18.21 0 .12.08.21.18.21zm13.78 2h-.16a2.2 2.2 0 01-2.16-2.06 2.2 2.2 0 012.16-2.37c1.14 0 2.1.9 2.18 2.06A2.24 2.24 0 0122 24.27zm-13.78 0a2.2 2.2 0 01-2.18-2.21 2.2 2.2 0 012.18-2.21c1.2 0 2.18.99 2.18 2.21a2.2 2.2 0 01-2.18 2.21zm12.98-6.87H9.13a.96.96 0 01-.93-.71L4.28 2.25H1.52a.97.97 0 01-.96-.98c0-.54.43-.98.96-.98H5c.43 0 .82.3.93.72l3.92 14.43h10.7l3.56-8.3H12.26a.97.97 0 01-.96-.98c0-.54.43-.98.96-.98h13.33c.32 0 .62.16.8.44a1 1 0 01.08.93L22.08 16.8a.96.96 0 01-.88.58z" fill="#fff"/></svg>