<svg width="48" height="35" fill="none" xmlns="http://www.w3.org/2000/svg"><path d="M42.4 8.54a4.6 4.6 0 00-4.65 4.53 4.46 4.46 0 001.56 3.36l-5.86 2.06L25.1 8.8a4.54 4.54 0 003.1-4.26 4.65 4.65 0 00-9.3 0 4.54 4.54 0 003.05 4.24l-8.35 9.7-5.86-2.05a4.46 4.46 0 001.56-3.37 4.65 4.65 0 10-5.74 4.4v12.29c0 .08.02.16.05.24-.04.12-.05.25-.05.38 0 4.42 17.92 4.55 19.96 4.55 2.04 0 19.96-.13 19.96-4.55 0-.13-.02-.26-.05-.38a.9.9 0 00.05-.24v-12.3a4.52 4.52 0 00-1.1-8.92zM21.16 4.55a2.39 2.39 0 114.77-.11 2.39 2.39 0 01-4.77.11zm-7.59 16.28a1.15 1.15 0 001.25-.33l8.7-10.1 8.7 10.1a1.16 1.16 0 001.25.33l7.75-2.73v9.94c-4.88-2.12-16.1-2.2-17.7-2.2-1.59 0-12.82.08-17.7 2.2V18.1l7.75 2.73zm9.95 11.89c-8.7 0-14.25-1.01-16.56-1.87a4.63 4.63 0 01-1-.47c.72-.52 3.06-1.23 6.97-1.73 7.03-.8 14.14-.8 21.17 0 3.9.5 6.25 1.21 6.97 1.73-.31.2-.65.36-1 .47-2.3.85-7.84 1.87-16.55 1.87zM2.28 13.07a2.39 2.39 0 114.77-.11 2.39 2.39 0 01-4.77.1zM42.4 15.4a2.33 2.33 0 112.39-2.33 2.36 2.36 0 01-2.39 2.33z" fill="#F16D7F"/></svg>