<svg width="46" height="32" fill="none" xmlns="http://www.w3.org/2000/svg"><path d="M30.29 27.24H14.8a5.56 5.56 0 01-10.99 0H1.9a1.87 1.87 0 01-1.86-1.87V1.87A1.87 1.87 0 011.89 0h25.55a1.87 1.87 0 011.85 1.88v1.9h7.12a.9.9 0 01.24.03c2.3.2 3.46 1.4 4.68 3.46l3.56 6.1c.08.14.13.3.13.48V26.3a.93.93 0 01-.93.94h-2.81a5.56 5.56 0 01-11 0zm1.78-.94a3.71 3.71 0 107.42-.08 3.71 3.71 0 00-7.42.08zm-26.47 0a3.71 3.71 0 107.43-.08 3.71 3.71 0 00-7.43.08zm35.67-.93h1.89v-5.62h-2.74a.93.93 0 01-.93-.94v-1.85c0-.72.28-1.41.77-1.94H33.9a.93.93 0 01-.23-.02 2.82 2.82 0 01-2.58-2.83v-4.7a.94.94 0 01.93-.94h6.48a3.35 3.35 0 00-2.57-.88h-6.63v19.71h1a5.56 5.56 0 0110.98 0zm-26.46 0h12.63V1.87H1.89v23.5h1.93a5.56 5.56 0 0110.99 0zm26.54-8.4v.9h1.8v-1.84h-.87a.93.93 0 00-.93.93zm-8.41-4.8a.95.95 0 00.95.96c.06 0 .12 0 .19.02h8.52l-2.77-4.73h-6.9v3.75zm.1 14.14a2.77 2.77 0 012.74-2.78.94.94 0 010 1.87.9.9 0 10.9.9.93.93 0 011.85 0 2.75 2.75 0 11-5.5 0zm-26.47 0a2.77 2.77 0 012.75-2.78.94.94 0 010 1.87.9.9 0 10.89.9.93.93 0 011.86 0 2.75 2.75 0 11-5.5 0zM4.7 5.66a.94.94 0 110-1.88h19.9a.94.94 0 110 1.88H4.7z" fill="#F16D7F"/></svg>