<svg width="40" height="40" fill="none" xmlns="http://www.w3.org/2000/svg"><path d="M20 37.02l-3.48 2.9L14.23 36 10 37.52l-.82-4.48-4.49-.05.73-4.5-4.2-1.6 2.2-3.96L0 19.96l3.41-2.97-2.2-3.96 4.2-1.6-.73-4.5 4.5-.04.81-4.48 4.24 1.51L16.53 0l3.46 2.9L23.46 0l2.3 3.92 4.23-1.51.82 4.48 4.5.04-.73 4.5 4.2 1.6-2.2 3.97 3.4 2.96-3.4 2.97 2.2 3.96-4.2 1.6.73 4.5-4.5.04-.82 4.48-4.24-1.5-2.29 3.91-3.47-2.9zm1.2-1.48l1.76 1.47 1.16-1.99.8-1.35 1.46.52 2.15.77.42-2.28.29-1.55 1.56-.02 2.28-.02-.37-2.28-.26-1.56 1.46-.55 2.14-.82-1.13-2-.76-1.38 1.18-1.03 1.74-1.5-1.74-1.5-1.18-1.04.77-1.37 1.12-2.02-2.14-.8-1.46-.56.26-1.56.37-2.28-2.28-.02-1.56-.02-.29-1.55-.41-2.28-2.15.77-1.47.52-.8-1.35-1.16-2L21.2 4.4l-1.2 1-1.2-1-1.77-1.47-1.16 1.99-.8 1.35-1.46-.52-2.15-.77-.42 2.28-.28 1.55-1.56.02-2.29.02.38 2.28.25 1.56-1.46.55-2.13.81 1.12 2.01.76 1.38-1.18 1.03-1.73 1.5 1.73 1.51 1.18 1.03-.76 1.38-1.12 2 2.13.82 1.46.55-.26 1.56-.37 2.29 2.28.02 1.56.02.29 1.55.42 2.27 2.15-.77 1.47-.52.79 1.36 1.16 1.99 1.76-1.47 1.2-1 1.21 1zm.12-12.52c0-2.93 1.56-4.56 3.46-4.56 2 0 3.3 1.57 3.3 4.33 0 3.06-1.59 4.58-3.42 4.58-1.78 0-3.32-1.45-3.34-4.35zm1.52-.09c-.02 1.85.68 3.26 1.87 3.26 1.28 0 1.85-1.39 1.85-3.3 0-1.77-.5-3.24-1.85-3.24-1.21 0-1.87 1.45-1.87 3.28zm-7.65 4.4l8.42-14.72h1.23l-8.41 14.72h-1.24zM11.98 17c0-2.9 1.56-4.53 3.46-4.53 2 0 3.32 1.56 3.32 4.33 0 3.06-1.58 4.57-3.43 4.57-1.79 0-3.33-1.45-3.35-4.37zm1.54-.07c-.04 1.85.64 3.26 1.85 3.26 1.28 0 1.85-1.38 1.85-3.3 0-1.76-.5-3.23-1.85-3.23-1.2 0-1.85 1.44-1.85 3.28z" fill="#F16D7F"/></svg>