<svg width="42" height="37" fill="none" xmlns="http://www.w3.org/2000/svg"><path d="M26.2 37a2.48 2.48 0 11.2 0h-.2zM6.75 34.32a2.68 2.68 0 115.37 0 2.68 2.68 0 01-5.37 0zm3.8-5.63a1.18 1.18 0 01-1.14-.87L4.57 10.36H1.18a1.18 1.18 0 110-2.36h4.28a1.18 1.18 0 011.15.87l4.83 17.45h13.18L29 16.27H14.4a1.18 1.18 0 110-2.36h16.41A1.18 1.18 0 0132 14.99c.02.2-.01.4-.09.57l-5.4 12.42a1.18 1.18 0 01-1.09.7H10.55z" fill="#E8E8E8"/><path d="M31.5 19a9.5 9.5 0 100-19 9.5 9.5 0 000 19z" fill="#F16D7F"/><path d="M30.81 7.65c.45-.1.86-.15 1.24-.15.45 0 .84.07 1.19.2.34.13.63.32.86.55.23.23.4.5.52.82a3.07 3.07 0 01-.06 2.27 2.77 2.77 0 01-1.63 1.55 3.46 3.46 0 01-1.95.13 3.66 3.66 0 01-1.67-.83l.33-.46c.08-.1.17-.15.29-.15.08 0 .17.03.27.1l.36.2a2.39 2.39 0 001.2.3c.3 0 .57-.05.81-.15a1.77 1.77 0 001.02-1.05 2.38 2.38 0 00.01-1.56c-.07-.21-.19-.4-.35-.55a1.6 1.6 0 00-.59-.35 2.47 2.47 0 00-.83-.13 4.5 4.5 0 00-1.39.23l-.67-.2.7-4.02h4.06v.47c0 .15-.04.28-.14.38-.1.1-.25.14-.48.14h-2.7l-.4 2.26z" fill="#fff"/></svg>