<svg width="29" height="29" fill="none" xmlns="http://www.w3.org/2000/svg"><path d="M14.5 19.94c4.5 0 8.16-4.48 8.16-9.97C22.66 4.47 19 0 14.5 0a7.45 7.45 0 00-5.83 3C7.13 5 6.3 7.45 6.34 9.97c0 5.5 3.66 9.97 8.16 9.97zm0-18.13c3.5 0 6.34 3.66 6.34 8.16S18 18.12 14.5 18.12s-6.34-3.66-6.34-8.15c0-4.5 2.84-8.16 6.34-8.16zm6.34 16.32a.9.9 0 000 1.8 6.35 6.35 0 016.35 6.35.9.9 0 01-.9.9H2.71a.9.9 0 01-.9-.9 6.35 6.35 0 016.34-6.34.9.9 0 000-1.81A8.16 8.16 0 000 26.28 2.72 2.72 0 002.72 29h23.56A2.72 2.72 0 0029 26.28a8.17 8.17 0 00-8.16-8.16z" fill="#E8E8E8"/></svg>