<svg width="33" height="32" fill="none" xmlns="http://www.w3.org/2000/svg"><path d="M32.19 0H.74v32h31.45V0z" fill="#fff"/><g clip-path="url(#clip0)"><path d="M16.14 12.68a3.81 3.81 0 100 7.63 3.81 3.81 0 100-7.63zm0 6.3a2.48 2.48 0 110-4.95 2.48 2.48 0 010 4.95zM21 12.53c0 .49-.4.89-.9.89a.89.89 0 110-1.78c.5 0 .9.4.9.89zm2.53.9a4.4 4.4 0 00-1.2-3.12 4.44 4.44 0 00-3.13-1.2 90.4 90.4 0 00-6.15 0c-1.19.06-2.25.33-3.12 1.2a4.41 4.41 0 00-1.2 3.12 89.97 89.97 0 000 6.13 4.4 4.4 0 001.2 3.12 4.45 4.45 0 003.12 1.2c1.23.07 4.92.07 6.15 0a4.41 4.41 0 003.12-1.2 4.43 4.43 0 001.2-3.12c.08-1.22.08-4.9 0-6.13zm-1.6 7.45a2.51 2.51 0 01-1.4 1.42c-.99.39-3.32.3-4.4.3-1.09 0-3.42.08-4.4-.3a2.51 2.51 0 01-1.41-1.42c-.39-.98-.3-3.3-.3-4.38 0-1.09-.09-3.41.3-4.39.26-.65.76-1.15 1.42-1.41.98-.4 3.3-.3 4.39-.3 1.08 0 3.41-.09 4.4.3.64.26 1.15.76 1.4 1.41.4.98.3 3.3.3 4.39 0 1.08.1 3.4-.3 4.38z" fill="#000"/></g><defs><clipPath id="clip0"><path fill="#fff" transform="translate(8.69 8)" d="M0 0h14.9v17H0z"/></clipPath></defs></svg>