<svg width="32" height="32" fill="none" xmlns="http://www.w3.org/2000/svg"><path d="M31.93 0H.47v32h31.46V0z" fill="#fff"/><g clip-path="url(#clip0)"><path d="M16.74 8.2c-3.18 0-6.33 2.14-6.33 5.6 0 2.2 1.23 3.45 1.97 3.45.31 0 .49-.86.49-1.1 0-.3-.74-.92-.74-2.12a4.2 4.2 0 014.36-4.3c2.11 0 3.68 1.21 3.68 3.43 0 1.66-.66 4.77-2.8 4.77-.78 0-1.44-.56-1.44-1.36 0-1.19.82-2.33.82-3.55 0-2.07-2.91-1.7-2.91.8 0 .53.06 1.11.3 1.6-.44 1.85-1.31 4.61-1.31 6.53 0 .59.08 1.17.14 1.76.1.12.05.1.21.05 1.57-2.16 1.51-2.58 2.22-5.4.38.73 1.37 1.12 2.15 1.12 3.3 0 4.78-3.23 4.78-6.15 0-3.1-2.67-5.13-5.59-5.13z" fill="#000"/></g><defs><clipPath id="clip0"><path fill="#fff" transform="translate(10.4 8)" d="M0 0h11.92v16H0z"/></clipPath></defs></svg>