<svg width="32" height="32" fill="none" xmlns="http://www.w3.org/2000/svg"><path d="M31.66 0H.21v32h31.45V0z" fill="#fff"/><g clip-path="url(#clip0)"><path d="M22.42 12.74v.43c0 4.33-3.27 9.33-9.26 9.33a9.16 9.16 0 01-5-1.48 6.7 6.7 0 004.83-1.36 3.27 3.27 0 01-3.05-2.27 3.42 3.42 0 001.47-.06 3.27 3.27 0 01-2.6-3.22v-.04c.43.24.93.4 1.47.42a3.28 3.28 0 01-1.01-4.39 9.24 9.24 0 006.71 3.43 3.27 3.27 0 015.56-3 6.39 6.39 0 002.07-.78c-.25.76-.76 1.4-1.44 1.8a6.5 6.5 0 001.88-.5c-.44.64-1 1.22-1.63 1.7z" fill="#000"/></g><defs><clipPath id="clip0"><path fill="#fff" transform="translate(8.16 8)" d="M0 0h15.89v16H0z"/></clipPath></defs></svg>